<svg width="21" height="19" viewBox="0 0 21 19" fill="none" xmlns="http://www.w3.org/2000/svg">
<path d="M0.0957031 1.53846C0.0957031 0.688793 0.784496 0 1.63416 0H8.55724C8.98208 0 9.32647 0.344397 9.32647 0.769231V0.769231C9.32647 1.19407 8.98208 1.53846 8.55724 1.53846H0.0957031V1.53846Z" fill="black"/>
<path d="M10.8647 0.769231C10.8647 0.344397 11.2091 0 11.634 0H18.5571C19.4067 0 20.0955 0.688793 20.0955 1.53846V1.53846H11.634C11.2091 1.53846 10.8647 1.19407 10.8647 0.769231V0.769231Z" fill="black"/>
<path d="M10.8647 17.6923C10.8647 17.2675 11.2091 16.9231 11.634 16.9231H20.0955V16.9231C20.0955 17.7728 19.4067 18.4616 18.5571 18.4616H11.634C11.2091 18.4616 10.8647 18.1172 10.8647 17.6923V17.6923Z" fill="black"/>
<path d="M0.0957031 16.9231H8.55724C8.98208 16.9231 9.32647 17.2675 9.32647 17.6923V17.6923C9.32647 18.1172 8.98208 18.4616 8.55724 18.4616H1.63416C0.784495 18.4616 0.0957031 17.7728 0.0957031 16.9231V16.9231Z" fill="black"/>
<path d="M0.0957031 1.53846C0.0957031 0.688793 0.784496 0 1.63416 0V0V18.4615V18.4615C0.784496 18.4615 0.0957031 17.7727 0.0957031 16.9231V1.53846Z" fill="black"/>
<path d="M20.0957 1.53846C20.0957 0.688793 19.4069 0 18.5572 0V0V18.4615V18.4615C19.4069 18.4615 20.0957 17.7727 20.0957 16.9231V1.53846Z" fill="black"/>
</svg>
