<svg width="20" height="19" viewBox="0 0 20 19" fill="none" xmlns="http://www.w3.org/2000/svg">
<path d="M0 1.53846C0 0.688793 0.688792 0 1.53846 0H8.46154C8.88637 0 9.23077 0.344397 9.23077 0.769231C9.23077 1.19407 8.88637 1.53846 8.46154 1.53846H0Z" fill="black"/>
<path d="M10.7693 0.769231C10.7693 0.344397 11.1137 0 11.5385 0H18.4616C19.3113 0 20.0001 0.688793 20.0001 1.53846H11.5385C11.1137 1.53846 10.7693 1.19407 10.7693 0.769231Z" fill="black"/>
<path d="M10.7693 17.6921C10.7693 17.2672 11.1137 16.9229 11.5385 16.9229H20.0001C20.0001 17.7725 19.3113 18.4613 18.4616 18.4613H11.5385C11.1137 18.4613 10.7693 18.1169 10.7693 17.6921Z" fill="black"/>
<path d="M0 16.9229H8.46154C8.88637 16.9229 9.23077 17.2672 9.23077 17.6921C9.23077 18.1169 8.88637 18.4613 8.46154 18.4613H1.53846C0.688792 18.4613 0 17.7725 0 16.9229Z" fill="black"/>
<path d="M0 1.53846C0 0.688793 0.688793 0 1.53846 0V18.4615C0.688793 18.4615 0 17.7727 0 16.9231V1.53846Z" fill="black"/>
<path d="M20 1.53846C20 0.688793 19.3112 0 18.4615 0V18.4615C19.3112 18.4615 20 17.7727 20 16.9231V1.53846Z" fill="black"/>
</svg>
