<svg width="26" height="26" viewBox="0 0 26 26" fill="none" xmlns="http://www.w3.org/2000/svg">
<rect x="0.5" y="0.5" width="25" height="25" rx="5.5" fill="#F0F3F4" stroke="#F0F3F4"/>
<path d="M5.61318 19.32C6.12394 19.831 6.73037 20.2364 7.39783 20.5129C8.06528 20.7895 8.78069 20.9319 9.50318 20.9319C10.2257 20.9319 10.9411 20.7895 11.6085 20.5129C12.276 20.2364 12.8824 19.831 13.3932 19.32L20.8132 11.9C21.1851 11.5285 21.4801 11.0874 21.6814 10.6018C21.8827 10.1162 21.9863 9.59569 21.9863 9.07002C21.9863 8.54436 21.8827 8.02386 21.6814 7.53826C21.4801 7.05267 21.1851 6.61152 20.8132 6.24002C20.0506 5.51255 19.0371 5.10669 17.9832 5.10669C16.9292 5.10669 15.9158 5.51255 15.1532 6.24002L8.44318 13C8.17717 13.2243 7.9609 13.5017 7.80823 13.8144C7.65556 14.1271 7.56984 14.4682 7.55656 14.8159C7.54329 15.1636 7.60274 15.5102 7.73112 15.8336C7.8595 16.157 8.05397 16.4501 8.30211 16.694C8.55024 16.938 8.84656 17.1274 9.17212 17.2503C9.49767 17.3731 9.84528 17.4267 10.1927 17.4075C10.5401 17.3883 10.8797 17.2967 11.1898 17.1388C11.4998 16.9808 11.7734 16.7598 11.9932 16.49L15.8632 12.6C16.027 12.4087 16.1126 12.1626 16.1029 11.911C16.0932 11.6593 15.9888 11.4206 15.8107 11.2425C15.6326 11.0644 15.3939 10.96 15.1422 10.9503C14.8906 10.9406 14.6445 11.0262 14.4532 11.19L10.5632 15.08C10.469 15.1742 10.3413 15.2271 10.2082 15.2271C10.075 15.2271 9.94733 15.1742 9.85318 15.08C9.75903 14.9859 9.70614 14.8582 9.70614 14.725C9.70614 14.5919 9.75903 14.4642 9.85318 14.37L16.5732 7.65002C16.9556 7.28855 17.4619 7.08715 17.9882 7.08715C18.5144 7.08715 19.0207 7.28855 19.4032 7.65002C19.5891 7.83577 19.7367 8.05635 19.8373 8.29914C19.9379 8.54194 19.9898 8.80219 19.9898 9.06502C19.9898 9.32786 19.9379 9.58811 19.8373 9.83091C19.7367 10.0737 19.5891 10.2943 19.4032 10.48L11.9932 17.91C11.3421 18.5731 10.4542 18.9503 9.525 18.9587C8.59576 18.9672 7.70122 18.6061 7.03818 17.955C6.37514 17.3039 5.99791 16.4161 5.98947 15.4868C5.98103 14.5576 6.34207 13.6631 6.99318 13L11.5932 8.40002C11.7794 8.21266 11.884 7.95921 11.884 7.69502C11.884 7.43084 11.7794 7.17739 11.5932 6.99002C11.5002 6.8963 11.3896 6.8219 11.2678 6.77113C11.1459 6.72036 11.0152 6.69423 10.8832 6.69423C10.7512 6.69423 10.6205 6.72036 10.4986 6.77113C10.3767 6.8219 10.2661 6.8963 10.1732 6.99002L5.58318 11.58C4.56734 12.6138 4.00063 14.0068 4.00625 15.4562C4.01186 16.9056 4.58936 18.2941 5.61318 19.32Z" fill="#919293"/>
</svg>
