<svg width="28" height="30" viewBox="0 0 28 30" fill="none" xmlns="http://www.w3.org/2000/svg">
<path d="M15.8087 14.994L23.8783 6.88842C24.3797 6.38525 24.3797 5.56885 23.8783 5.06568C23.377 4.56209 22.565 4.56209 22.0637 5.06568L13.9941 13.1713L5.92405 5.06568C5.42269 4.56209 4.61077 4.56209 4.10942 5.06568C3.60806 5.56885 3.60806 6.38525 4.10942 6.88842L12.1794 14.994L4.10942 23.0997C3.60806 23.6028 3.60806 24.4192 4.10942 24.9224C4.36009 25.1738 4.68863 25.2997 5.01673 25.2997C5.34484 25.2997 5.67337 25.1738 5.92405 24.922L13.9941 16.8163L22.0637 24.922C22.3144 25.1738 22.6429 25.2997 22.971 25.2997C23.2991 25.2997 23.6276 25.1738 23.8783 24.922C24.3797 24.4188 24.3797 23.6024 23.8783 23.0992L15.8087 14.994Z" fill="#585858"/>
<mask id="mask0" mask-type="alpha" maskUnits="userSpaceOnUse" x="3" y="4" width="22" height="22">
<path d="M15.8087 14.994L23.8783 6.88842C24.3797 6.38525 24.3797 5.56885 23.8783 5.06568C23.377 4.56209 22.565 4.56209 22.0637 5.06568L13.9941 13.1713L5.92405 5.06568C5.42269 4.56209 4.61077 4.56209 4.10942 5.06568C3.60806 5.56885 3.60806 6.38525 4.10942 6.88842L12.1794 14.994L4.10942 23.0997C3.60806 23.6028 3.60806 24.4192 4.10942 24.9224C4.36009 25.1738 4.68863 25.2997 5.01673 25.2997C5.34484 25.2997 5.67337 25.1738 5.92405 24.922L13.9941 16.8163L22.0637 24.922C22.3144 25.1738 22.6429 25.2997 22.971 25.2997C23.2991 25.2997 23.6276 25.1738 23.8783 24.922C24.3797 24.4188 24.3797 23.6024 23.8783 23.0992L15.8087 14.994Z" fill="white"/>
</mask>
<g mask="url(#mask0)">
<rect width="28" height="30" fill="white"/>
</g>
</svg>
