<svg width="60" height="61" viewBox="0 0 60 61" fill="none" xmlns="http://www.w3.org/2000/svg">
<rect width="60" height="60" rx="4" fill="white"/>
<g clip-path="url(#clip0)">
<path d="M45.6253 45.4167C45.4309 45.4209 45.2409 45.3561 45.0878 45.2333L40.5549 41.75H29.5003C28.3155 41.7452 27.1808 41.2601 26.3447 40.4011C25.5085 39.5421 25.0391 38.3791 25.0391 37.1667V26.1667C25.0367 25.5656 25.1504 24.9701 25.3735 24.4141C25.5967 23.8581 25.9249 23.3527 26.3394 22.9269C26.7539 22.501 27.2465 22.1631 27.789 21.9326C28.3314 21.702 28.913 21.5833 29.5003 21.5833H45.6253C46.2149 21.5785 46.7995 21.6937 47.3451 21.9223C47.8907 22.1509 48.3864 22.4883 48.8032 22.9149C49.2201 23.3415 49.5499 23.8487 49.7733 24.4069C49.9967 24.9652 50.1093 25.5634 50.1045 26.1667V37.1667C50.1074 38.222 49.7514 39.2454 49.0976 40.0616C48.4439 40.8777 47.533 41.4358 46.5212 41.64V44.5C46.5195 44.6714 46.4718 44.8389 46.3833 44.9844C46.2948 45.1299 46.169 45.2477 46.0195 45.325C45.8959 45.3836 45.7616 45.4149 45.6253 45.4167ZM29.5003 23.4167C29.1483 23.4167 28.7996 23.4879 28.4746 23.6263C28.1495 23.7648 27.8544 23.9676 27.6063 24.2232C27.3582 24.4788 27.1619 24.7821 27.0288 25.1157C26.8957 25.4492 26.8284 25.8064 26.8308 26.1667V37.1667C26.8284 37.5269 26.8957 37.8841 27.0288 38.2177C27.1619 38.5512 27.3582 38.8545 27.6063 39.1101C27.8544 39.3657 28.1495 39.5686 28.4746 39.707C28.7996 39.8454 29.1483 39.9167 29.5003 39.9167H40.8416C41.0352 39.918 41.2234 39.9822 41.3791 40.1L44.7295 42.6667V40.8333C44.7295 40.5902 44.8239 40.3571 44.9919 40.1852C45.1599 40.0133 45.3878 39.9167 45.6253 39.9167C46.3381 39.9167 47.0217 39.6269 47.5257 39.1112C48.0297 38.5955 48.3128 37.896 48.3128 37.1667V26.1667C48.3152 25.8049 48.2473 25.4462 48.1131 25.1114C47.9789 24.7767 47.781 24.4725 47.531 24.2167C47.281 23.9609 46.9838 23.7584 46.6566 23.621C46.3295 23.4837 45.9789 23.4142 45.6253 23.4167H29.5003Z" fill="black"/>
<path d="M43.834 28.9167H31.2923C31.0547 28.9167 30.8269 28.8201 30.6589 28.6482C30.4909 28.4763 30.3965 28.2432 30.3965 28C30.3965 27.7569 30.4909 27.5238 30.6589 27.3519C30.8269 27.18 31.0547 27.0834 31.2923 27.0834H43.834C44.0716 27.0834 44.2994 27.18 44.4674 27.3519C44.6354 27.5238 44.7298 27.7569 44.7298 28C44.7298 28.2432 44.6354 28.4763 44.4674 28.6482C44.2994 28.8201 44.0716 28.9167 43.834 28.9167Z" fill="black"/>
<path d="M43.834 32.5833H31.2923C31.0547 32.5833 30.8269 32.4868 30.6589 32.3149C30.4909 32.1429 30.3965 31.9098 30.3965 31.6667C30.3965 31.4236 30.4909 31.1904 30.6589 31.0185C30.8269 30.8466 31.0547 30.75 31.2923 30.75H43.834C44.0716 30.75 44.2994 30.8466 44.4674 31.0185C44.6354 31.1904 44.7298 31.4236 44.7298 31.6667C44.7298 31.9098 44.6354 32.1429 44.4674 32.3149C44.2994 32.4868 44.0716 32.5833 43.834 32.5833Z" fill="black"/>
<path d="M43.834 36.25H31.2923C31.0547 36.25 30.8269 36.1534 30.6589 35.9815C30.4909 35.8096 30.3965 35.5765 30.3965 35.3334C30.3965 35.0902 30.4909 34.8571 30.6589 34.6852C30.8269 34.5133 31.0547 34.4167 31.2923 34.4167H43.834C44.0716 34.4167 44.2994 34.5133 44.4674 34.6852C44.6354 34.8571 44.7298 35.0902 44.7298 35.3334C44.7298 35.5765 44.6354 35.8096 44.4674 35.9815C44.2994 36.1534 44.0716 36.25 43.834 36.25Z" fill="black"/>
<path d="M13.3757 36.25C13.2394 36.2482 13.1051 36.217 12.9815 36.1583C12.832 36.0811 12.7062 35.9633 12.6177 35.8178C12.5292 35.6723 12.4816 35.5047 12.4798 35.3333V32.4917C11.4666 32.2836 10.5553 31.722 9.90178 30.9027C9.24823 30.0835 8.89291 29.0575 8.89651 28V18.8333C8.89651 18.2323 9.01249 17.6372 9.23781 17.0822C9.46313 16.5271 9.79334 16.023 10.2095 15.5989C10.6257 15.1748 11.1196 14.8389 11.6629 14.6106C12.2063 14.3822 12.7883 14.2659 13.3757 14.2683H27.709C28.2964 14.2659 28.8784 14.3822 29.4218 14.6106C29.9651 14.8389 30.459 15.1748 30.8752 15.5989C31.2913 16.023 31.6216 16.5271 31.8469 17.0822C32.0722 17.6372 32.1882 18.2323 32.1882 18.8333V22.5C32.1882 22.7431 32.0938 22.9763 31.9258 23.1482C31.7578 23.3201 31.5299 23.4167 31.2923 23.4167C31.0548 23.4167 30.8269 23.3201 30.6589 23.1482C30.4909 22.9763 30.3965 22.7431 30.3965 22.5V18.8333C30.3965 18.4731 30.3269 18.1164 30.1916 17.7837C30.0563 17.4511 29.8581 17.1492 29.6083 16.8953C29.3585 16.6414 29.0621 16.4405 28.7361 16.3043C28.4102 16.1681 28.0611 16.0993 27.709 16.1017H13.3757C13.0236 16.0993 12.6745 16.1681 12.3486 16.3043C12.0226 16.4405 11.7262 16.6414 11.4764 16.8953C11.2266 17.1492 11.0284 17.4511 10.8931 17.7837C10.7578 18.1164 10.6882 18.4731 10.6882 18.8333V28C10.6858 28.3618 10.7537 28.7205 10.8879 29.0553C11.0221 29.39 11.22 29.6941 11.47 29.95C11.7201 30.2058 12.0173 30.4083 12.3444 30.5456C12.6715 30.683 13.0221 30.7524 13.3757 30.75C13.6149 30.75 13.8447 30.846 14.0155 31.0174C14.1864 31.1888 14.2847 31.4219 14.2894 31.6667V33.5L17.6398 30.9333C17.8009 30.8265 17.9859 30.7634 18.1773 30.75H22.334C22.5732 30.7548 22.8011 30.8554 22.9686 31.0303C23.1361 31.2051 23.2299 31.4402 23.2298 31.685C23.2252 31.9249 23.1287 32.1534 22.9612 32.3214C22.7937 32.4893 22.5685 32.5834 22.334 32.5833H18.4461L13.9132 36.0667C13.7601 36.1895 13.5702 36.2543 13.3757 36.25Z" fill="black"/>
<path d="M24.1257 21.5833H15.1673C14.9297 21.5833 14.7019 21.4868 14.5339 21.3148C14.3659 21.1429 14.2715 20.9098 14.2715 20.6667C14.2715 20.4236 14.3659 20.1904 14.5339 20.0185C14.7019 19.8466 14.9297 19.75 15.1673 19.75H24.1257C24.3632 19.75 24.5911 19.8466 24.7591 20.0185C24.9271 20.1904 25.0215 20.4236 25.0215 20.6667C25.0215 20.9098 24.9271 21.1429 24.7591 21.3148C24.5911 21.4868 24.3632 21.5833 24.1257 21.5833Z" fill="black"/>
<path d="M20.5423 27.1017H15.1673C14.9297 27.1017 14.7019 27.0051 14.5339 26.8332C14.3659 26.6613 14.2715 26.4282 14.2715 26.185C14.2715 25.9419 14.3659 25.7088 14.5339 25.5369C14.7019 25.3649 14.9297 25.2684 15.1673 25.2684H20.5423C20.7799 25.2684 21.0078 25.3649 21.1758 25.5369C21.3438 25.7088 21.4382 25.9419 21.4382 26.185C21.4382 26.4282 21.3438 26.6613 21.1758 26.8332C21.0078 27.0051 20.7799 27.1017 20.5423 27.1017Z" fill="black"/>
</g>
<defs>
<clipPath id="clip0">
<rect width="43" height="55" fill="white" transform="translate(8 6)"/>
</clipPath>
</defs>
</svg>
