<?xml version="1.0" encoding="UTF-8"?>
<svg width="23px" height="21px" viewBox="0 0 23 21" version="1.1" xmlns="http://www.w3.org/2000/svg" xmlns:xlink="http://www.w3.org/1999/xlink">
    <title>deslected</title>
    <g id="deslected" stroke="none" stroke-width="1" fill="none" fill-rule="evenodd">
        <g id="deselected-comment" transform="translate(0.500000, 0.500000)" fill-rule="nonzero">
            <path d="M18.7322034,0 L2.86779662,0 C1.28745763,0 -2.48689958e-14,1.32194813 -2.48689958e-14,2.9601518 L-2.48689958e-14,12.915876 C-2.48689958e-14,14.5540797 1.28745763,15.8760278 2.86779662,15.8760278 L7.81627118,15.8760278 L10.0983051,19.601518 C10.2508475,19.8481974 10.5071186,20 10.7877966,20 C11.0684746,20 11.3247458,19.8481974 11.4772881,19.601518 L13.759322,15.8760278 L18.7322034,15.8760278 C20.3125424,15.8760278 21.6,14.5540797 21.6,12.915876 L21.6,2.9601518 C21.6,1.32194813 20.3125424,0 18.7322034,0 Z" id="Shape" stroke="#C3C3C3" fill="#FFFFFF"></path>
            <path d="M9.64285714,10.5 C9.91899952,10.5 10.1428571,10.7238576 10.1428571,11 C10.1428571,11.2761424 9.91899952,11.5 9.64285714,11.5 L5.5,11.5 C5.22385763,11.5 5,11.2761424 5,11 C5,10.7238576 5.22385763,10.5 5.5,10.5 L9.64285714,10.5 Z M16.8428571,7.5 C17.1189995,7.5 17.3428571,7.72385763 17.3428571,8 C17.3428571,8.27614237 17.1189995,8.5 16.8428571,8.5 L5.5,8.5 C5.22385763,8.5 5,8.27614237 5,8 C5,7.72385763 5.22385763,7.5 5.5,7.5 L16.8428571,7.5 Z M16.8428571,4.5 C17.1189995,4.5 17.3428571,4.72385763 17.3428571,5 C17.3428571,5.27614237 17.1189995,5.5 16.8428571,5.5 L5.5,5.5 C5.22385763,5.5 5,5.27614237 5,5 C5,4.72385763 5.22385763,4.5 5.5,4.5 L16.8428571,4.5 Z" id="Combined-Shape" fill="#C3C3C3"></path>
        </g>
    </g>
</svg>