<svg fill="none" height="55" viewBox="0 0 43 55" width="43" xmlns="http://www.w3.org/2000/svg"><g fill="#000"><path d="m37.6253 39.4167c-.1944.0043-.3844-.0605-.5375-.1833l-4.5329-3.4833h-11.0546c-1.1848-.0049-2.3195-.4899-3.1556-1.3489-.8362-.859-1.3056-2.0221-1.3056-3.2345v-11c-.0024-.601.1113-1.1966.3344-1.7525.2232-.556.5514-1.0614.9659-1.4873.4145-.4258.9071-.7637 1.4496-.9943.5424-.2305 1.124-.3492 1.7113-.3492h16.125c.5896-.0049 1.1742.1103 1.7198.3389s1.0413.5661 1.4581.9926c.4169.4266.7467.9338.9701 1.4921s.336 1.1565.3312 1.7597v11c.0029 1.0553-.3531 2.0788-1.0069 2.8949-.6537.8162-1.5646 1.3742-2.5764 1.5785v2.86c-.0017.1713-.0494.3389-.1379.4844s-.2143.2633-.3638.3406c-.1236.0586-.2579.0898-.3942.0916zm-16.125-22c-.352 0-.7007.0713-1.0257.2097-.3251.1384-.6202.3413-.8683.5969s-.4444.5589-.5775.8924c-.1331.3336-.2004.6908-.198 1.051v11c-.0024.3603.0649.7175.198 1.051.1331.3336.3294.6369.5775.8925s.5432.4584.8683.5969c.325.1384.6737.2096 1.0257.2096h11.3413c.1936.0013.3818.0655.5375.1834l3.3504 2.5666v-1.8333c0-.2431.0944-.4763.2624-.6482s.3959-.2685.6334-.2685c.7128 0 1.3964-.2897 1.9004-.8054s.7871-1.2152.7871-1.9446v-11c.0024-.3618-.0655-.7205-.1997-1.0552-.1342-.3348-.3321-.6389-.5821-.8947-.25-.2559-.5472-.4584-.8744-.5957-.3271-.1373-.6777-.2068-1.0313-.2044z"/><path d="m35.834 22.9166h-12.5417c-.2376 0-.4654-.0966-.6334-.2685s-.2624-.4051-.2624-.6482.0944-.4763.2624-.6482.3958-.2684.6334-.2684h12.5417c.2376 0 .4654.0965.6334.2684s.2624.4051.2624.6482-.0944.4763-.2624.6482-.3958.2685-.6334.2685z"/><path d="m35.834 26.5833h-12.5417c-.2376 0-.4654-.0965-.6334-.2684-.168-.172-.2624-.4051-.2624-.6482s.0944-.4763.2624-.6482.3958-.2685.6334-.2685h12.5417c.2376 0 .4654.0966.6334.2685s.2624.4051.2624.6482-.0944.4762-.2624.6482c-.168.1719-.3958.2684-.6334.2684z"/><path d="m35.834 30.2501h-12.5417c-.2376 0-.4654-.0966-.6334-.2685s-.2624-.4051-.2624-.6482.0944-.4763.2624-.6482.3958-.2685.6334-.2685h12.5417c.2376 0 .4654.0966.6334.2685s.2624.4051.2624.6482-.0944.4763-.2624.6482-.3958.2685-.6334.2685z"/><path d="m5.37568 30.25c-.13623-.0018-.27055-.033-.39417-.0917-.14947-.0772-.27532-.195-.36379-.3405s-.13617-.3131-.13787-.4845v-2.8416c-1.01328-.2081-1.92452-.7697-2.57807-1.589-.65355-.8192-1.008874-1.8452-1.005268-2.9027v-9.1667c-.000005-.601.115978-1.1961.341298-1.7511.22532-.5551.55553-1.0592.9717-1.48329.41616-.42414.91009-.76002 1.45342-.98835s1.12538-.34463 1.71275-.34221h14.33332c.5874-.00242 1.1694.11388 1.7128.34221.5433.22833 1.0372.56421 1.4534.98835.4161.42409.7464.92819.9717 1.48329.2253.555.3413 1.1501.3413 1.7511v3.6667c0 .2431-.0944.4763-.2624.6482s-.3959.2685-.6335.2685c-.2375 0-.4654-.0966-.6334-.2685s-.2624-.4051-.2624-.6482v-3.6667c0-.3602-.0696-.7169-.2049-1.0496-.1353-.3326-.3335-.6345-.5833-.8884s-.5462-.4548-.8722-.591c-.3259-.1362-.675-.205-1.0271-.2026h-14.33332c-.35208-.0024-.70115.0664-1.02711.2026s-.62237.3371-.87217.591c-.24979.2539-.44803.5558-.58331.8884-.13528.3327-.20492.6894-.20491 1.0496v9.1667c-.00238.3618.06551.7205.19972 1.0553.13422.3347.33209.6388.58212.8947.25003.2558.54725.4583.87439.5956.32713.1374.67768.2068 1.03127.2044.23927 0 .46901.096.63986.2674.17086.1714.2692.4045.27389.6493v1.8333l3.35041-2.5667c.16103-.1068.34602-.1699.53746-.1833h4.1567c.2392.0048.4671.1054.6346.2803.1675.1748.2613.4099.2612.6547-.0046.2399-.1011.4684-.2686.6364-.1675.1679-.3927.262-.6272.2619h-3.8879l-4.53292 3.4834c-.1531.1228-.34302.1876-.5375.1833z"/><path d="m16.1257 15.5833h-8.95838c-.23759 0-.46545-.0965-.63345-.2685-.168-.1719-.26239-.405-.26239-.6481s.09439-.4763.26239-.6482.39586-.2685.63345-.2685h8.95838c.2375 0 .4654.0966.6334.2685s.2624.4051.2624.6482-.0944.4762-.2624.6481c-.168.172-.3959.2685-.6334.2685z"/><path d="m12.5423 21.1016h-5.37498c-.23759 0-.46545-.0965-.63345-.2684-.168-.172-.26239-.4051-.26239-.6482s.09439-.4763.26239-.6482.39586-.2685.63345-.2685h5.37498c.2376 0 .4655.0966.6335.2685s.2624.4051.2624.6482-.0944.4762-.2624.6482c-.168.1719-.3959.2684-.6335.2684z"/></g></svg>