<svg width="32" height="32" viewBox="0 0 32 32" fill="none" xmlns="http://www.w3.org/2000/svg">
<rect x="3.5" y="4" width="25" height="25" rx="5.5" fill="#F0F3F4" stroke="#F0F3F4"/>
<path d="M22.1081 21.4874C22.1081 22.1687 21.5544 22.7434 20.873 22.7434H10.9898C10.3084 22.7434 9.7547 22.1687 9.7547 21.4874V11.6041C9.7547 10.9228 10.3084 10.3891 10.9898 10.3891H16.7547V9.56625H10.9898C9.85446 9.56625 8.93103 10.4696 8.93103 11.6049V21.4874C8.93103 22.6227 9.85446 23.5662 10.9898 23.5662H20.8723C22.0076 23.5662 22.931 22.6219 22.931 21.4874V15.7426H22.1074V21.4874H22.1081Z" fill="#6C6C6C" stroke="#585858" stroke-width="0.8"/>
<path fill-rule="evenodd" clip-rule="evenodd" d="M23.0195 9.46575C22.4003 8.84475 21.3198 8.84475 20.6999 9.46575L15.1991 14.976C15.1467 15.0285 15.1089 15.0948 15.0912 15.1666L14.5121 17.4893C14.4775 17.6289 14.5183 17.7771 14.6199 17.8797C14.6977 17.9576 14.8024 18 14.9095 18C14.9426 18 14.9757 17.9961 15.0088 17.9877L17.3284 17.4068C17.4008 17.389 17.4662 17.3512 17.5186 17.2988L23.0195 11.7885C23.329 11.4784 23.5 11.0657 23.5 10.6267C23.5 10.1878 23.3298 9.77586 23.0195 9.46575ZM17.2754 16.5561L15.5 17L15.9439 15.2246L20.5367 10.6485L21.8416 11.9867L17.2754 16.5561ZM22.301 11.527C22.2704 11.5603 22.2416 11.5905 22.2156 11.6166L21.8446 11.9898L21.8416 11.9867L22.301 11.527ZM22.301 11.527C22.3111 11.5159 22.3215 11.5045 22.3319 11.4928L22.3335 11.4945L22.301 11.527ZM22.3319 11.4928L21.0394 10.1476L20.5367 10.6485L20.5309 10.6426L20.9027 10.2762C20.9083 10.2705 20.914 10.2647 20.9198 10.2589C21.1045 10.0731 21.3778 9.79823 21.6908 9.70382C21.898 9.64134 22.0341 9.63288 22.2156 9.70382C22.3124 9.74169 22.486 9.82099 22.5485 9.88494C22.9286 10.2737 22.87 10.4942 22.7974 10.7672L22.796 10.7724C22.7366 10.9957 22.5123 11.291 22.3319 11.4928Z" fill="#585858"/>
<path d="M20.6999 9.46575L20.8768 9.64237L20.6999 9.46575ZM23.0195 9.46575L22.8424 9.64226L22.8427 9.64259L23.0195 9.46575ZM15.1991 14.976L15.0221 14.7994L15.0221 14.7994L15.1991 14.976ZM15.0912 15.1666L15.3338 15.227L15.3339 15.2265L15.0912 15.1666ZM14.5121 17.4893L14.2695 17.4288L14.2695 17.4291L14.5121 17.4893ZM14.6199 17.8797L14.4423 18.0556L14.443 18.0563L14.6199 17.8797ZM15.0088 17.9877L14.9481 17.7451L14.9468 17.7455L15.0088 17.9877ZM17.3284 17.4068L17.2689 17.164L17.2677 17.1643L17.3284 17.4068ZM17.5186 17.2988L17.3417 17.1222L17.3417 17.1222L17.5186 17.2988ZM23.0195 11.7885L22.8425 11.6119L22.8425 11.6119L23.0195 11.7885ZM15.5 17L15.2575 16.9394L15.1564 17.3436L15.5606 17.2425L15.5 17ZM17.2754 16.5561L17.3361 16.7987L17.4033 16.7819L17.4523 16.7329L17.2754 16.5561ZM15.9439 15.2246L15.7674 15.0475L15.7182 15.0965L15.7013 15.1639L15.9439 15.2246ZM22.2156 11.6166L22.0384 11.4403L22.0383 11.4403L22.2156 11.6166ZM21.8446 11.9898L21.6656 12.1643L21.8428 12.3461L22.0218 12.166L21.8446 11.9898ZM22.3335 11.4945L22.5103 11.6712L22.6835 11.4979L22.5138 11.3212L22.3335 11.4945ZM21.0394 10.1476L21.2197 9.9744L21.0433 9.79082L20.863 9.97051L21.0394 10.1476ZM20.5309 10.6426L20.3554 10.4645L20.1783 10.6391L20.3519 10.8171L20.5309 10.6426ZM20.9027 10.2762L21.0782 10.4542L21.0799 10.4525L20.9027 10.2762ZM20.9198 10.2589L21.0971 10.4351L21.0972 10.4351L20.9198 10.2589ZM21.6908 9.70382L21.6186 9.46447L21.6186 9.46447L21.6908 9.70382ZM22.2156 9.70382L22.3066 9.47098L22.3066 9.47098L22.2156 9.70382ZM22.5485 9.88494L22.3697 10.0597L22.3697 10.0597L22.5485 9.88494ZM22.7974 10.7672L22.5558 10.7029L22.5558 10.703L22.7974 10.7672ZM22.796 10.7724L23.0376 10.8366L23.0376 10.8366L22.796 10.7724ZM20.8768 9.64237C21.3992 9.11915 22.321 9.11931 22.8424 9.64226L23.1965 9.28923C22.4796 8.5702 21.2405 8.57035 20.523 9.28912L20.8768 9.64237ZM15.376 15.1526L20.8768 9.64237L20.523 9.28912L15.0221 14.7994L15.376 15.1526ZM15.3339 15.2265C15.3406 15.1996 15.3552 15.1735 15.376 15.1526L15.0221 14.7994C14.9382 14.8835 14.8773 14.99 14.8485 15.1066L15.3339 15.2265ZM14.7547 17.5498L15.3338 15.227L14.8487 15.1061L14.2695 17.4288L14.7547 17.5498ZM14.7975 17.7037C14.7571 17.6629 14.7412 17.6043 14.7548 17.5495L14.2695 17.4291C14.2138 17.6536 14.2794 17.8912 14.4423 18.0556L14.7975 17.7037ZM14.9095 17.75C14.8682 17.75 14.8273 17.7336 14.7969 17.703L14.443 18.0563C14.5681 18.1816 14.7367 18.25 14.9095 18.25V17.75ZM14.9468 17.7455C14.9351 17.7485 14.9229 17.75 14.9095 17.75V18.25C14.9623 18.25 15.0163 18.2438 15.0709 18.2298L14.9468 17.7455ZM17.2677 17.1643L14.9481 17.7451L15.0696 18.2302L17.3891 17.6493L17.2677 17.1643ZM17.3417 17.1222C17.3204 17.1434 17.2952 17.1575 17.2689 17.164L17.3879 17.6496C17.5064 17.6205 17.612 17.559 17.6955 17.4754L17.3417 17.1222ZM22.8425 11.6119L17.3417 17.1222L17.6955 17.4754L23.1964 11.9651L22.8425 11.6119ZM23.25 10.6267C23.25 10.9994 23.1053 11.3486 22.8425 11.6119L23.1964 11.9651C23.5527 11.6082 23.75 11.1319 23.75 10.6267H23.25ZM22.8427 9.64259C23.106 9.90566 23.25 10.2539 23.25 10.6267H23.75C23.75 10.1217 23.5536 9.64606 23.1962 9.2889L22.8427 9.64259ZM15.5606 17.2425L17.3361 16.7987L17.2148 16.3136L15.4394 16.7575L15.5606 17.2425ZM15.7013 15.1639L15.2575 16.9394L15.7425 17.0606L16.1864 15.2852L15.7013 15.1639ZM20.3602 10.4714L15.7674 15.0475L16.1203 15.4017L20.7131 10.8256L20.3602 10.4714ZM22.0206 11.8122L20.7157 10.474L20.3577 10.8231L21.6626 12.1613L22.0206 11.8122ZM17.4523 16.7329L22.0184 12.1634L21.6647 11.81L17.0986 16.3794L17.4523 16.7329ZM22.1167 11.358C22.0883 11.3891 22.0618 11.4167 22.0384 11.4403L22.3928 11.793C22.4214 11.7642 22.4526 11.7315 22.4853 11.6959L22.1167 11.358ZM22.0383 11.4403L21.6673 11.8135L22.0218 12.166L22.3929 11.7929L22.0383 11.4403ZM22.0235 11.8152L22.0206 11.8122L21.6626 12.1613L21.6656 12.1643L22.0235 11.8152ZM22.0184 12.1634L22.4779 11.7037L22.1242 11.3502L21.6647 11.81L22.0184 12.1634ZM22.1455 11.3262C22.1358 11.3371 22.1261 11.3478 22.1167 11.358L22.4853 11.6959C22.4961 11.6841 22.5072 11.6719 22.5183 11.6594L22.1455 11.3262ZM22.5138 11.3212L22.5122 11.3196L22.1517 11.666L22.1532 11.6677L22.5138 11.3212ZM22.4779 11.7037L22.5103 11.6712L22.1567 11.3177L22.1242 11.3502L22.4779 11.7037ZM22.5122 11.3196L21.2197 9.9744L20.8592 10.3208L22.1516 11.666L22.5122 11.3196ZM20.863 9.97051L20.3602 10.4714L20.7131 10.8256L21.2159 10.3247L20.863 9.97051ZM20.7157 10.474L20.7099 10.468L20.3519 10.8171L20.3577 10.8231L20.7157 10.474ZM20.7064 10.8206L21.0782 10.4542L20.7272 10.0981L20.3554 10.4645L20.7064 10.8206ZM21.0799 10.4525C21.0856 10.4468 21.0914 10.441 21.0971 10.4351L20.7425 10.0827C20.7367 10.0885 20.731 10.0942 20.7255 10.0998L21.0799 10.4525ZM21.0972 10.4351C21.2924 10.2387 21.5215 10.016 21.763 9.94318L21.6186 9.46447C21.234 9.58047 20.9166 9.90751 20.7425 10.0827L21.0972 10.4351ZM21.763 9.94318C21.8566 9.91494 21.917 9.9044 21.9661 9.90377C22.0115 9.90319 22.0588 9.91097 22.1246 9.93667L22.3066 9.47098C22.1909 9.42574 22.0795 9.40228 21.9597 9.40381C21.8435 9.4053 21.7322 9.43022 21.6186 9.46447L21.763 9.94318ZM22.1246 9.93667C22.1665 9.95306 22.2261 9.97893 22.2806 10.0069C22.3078 10.0209 22.331 10.034 22.3489 10.0455C22.3689 10.0583 22.3734 10.0634 22.3697 10.0597L22.7273 9.71017C22.6648 9.64627 22.5725 9.59481 22.5092 9.56227C22.4371 9.52516 22.3615 9.49245 22.3066 9.47098L22.1246 9.93667ZM22.3697 10.0597C22.5402 10.234 22.5843 10.3425 22.5963 10.412C22.6094 10.4877 22.5941 10.5588 22.5558 10.7029L23.039 10.8314C23.0732 10.7026 23.1235 10.527 23.089 10.327C23.0535 10.1208 22.9369 9.92461 22.7273 9.71017L22.3697 10.0597ZM22.5558 10.703L22.5544 10.7082L23.0376 10.8366L23.039 10.8314L22.5558 10.703ZM22.5544 10.7082C22.5356 10.7789 22.4835 10.8807 22.4024 11.0004C22.3242 11.1158 22.2304 11.2312 22.1455 11.3262L22.5183 11.6594C22.6138 11.5526 22.7224 11.4194 22.8163 11.2809C22.9073 11.1467 22.997 10.9892 23.0376 10.8366L22.5544 10.7082Z" fill="#585858"/>
</svg>
