<svg width="19" height="26" viewBox="0 0 19 26" fill="none" xmlns="http://www.w3.org/2000/svg">
<g clip-path="url(#clip0)">
<path d="M16.7505 20.2658C17.6997 19.312 17.6997 17.7971 16.7505 16.8432C16.3596 16.4505 15.8571 16.226 15.3266 16.1419C15.9687 15.2161 15.8571 13.9256 15.0195 13.084C14.5728 12.6352 14.0144 12.4107 13.4281 12.3827C13.7911 11.513 13.6236 10.447 12.8977 9.71759C12.5068 9.32484 12.0322 9.12846 11.5297 9.01625L16.4155 4.10685C17.3647 3.15302 17.3647 1.63812 16.4155 0.684298C15.4662 -0.269528 13.9586 -0.269528 13.0094 0.684298L2.8469 10.8958C2.81899 10.9239 2.79107 10.952 2.76315 10.98C-0.335842 14.2062 -0.335842 19.3681 2.8469 22.5662C6.05757 25.7924 11.2505 25.7924 14.4611 22.5662L14.4891 22.5381L14.517 22.5101L16.7505 20.2658Z" fill="black"/>
</g>
<defs>
<clipPath id="clip0">
<rect x="0.0957031" width="18" height="26" fill="white"/>
</clipPath>
</defs>
</svg>
