<svg width="18" height="25" viewBox="0 0 18 25" fill="none" xmlns="http://www.w3.org/2000/svg">
<path d="M16.6548 20.2659C17.604 19.3121 17.604 17.7972 16.6548 16.8433C16.2639 16.4506 15.7614 16.2262 15.2309 16.142C15.873 15.2162 15.7614 13.9258 14.9238 13.0842C14.4771 12.6353 13.9187 12.4109 13.3324 12.3828C13.6954 11.5131 13.5279 10.4471 12.802 9.71771C12.4111 9.32496 11.9365 9.12858 11.434 9.01637L16.3197 4.10697C17.269 3.15314 17.269 1.63825 16.3197 0.68442C15.3705 -0.269406 13.8629 -0.269406 12.9137 0.68442L2.7512 10.896C2.72328 10.924 2.69536 10.9521 2.66744 10.9801C-0.431545 14.2063 -0.431546 19.3682 2.7512 22.5663C5.96186 25.7925 11.1548 25.7925 14.3654 22.5663L14.3933 22.5382L14.4213 22.5102L16.6548 20.2659Z" fill="#585858"/>
</svg>
