<svg width="18" height="26" viewBox="0 0 18 26" fill="none" xmlns="http://www.w3.org/2000/svg">
<g clip-path="url(#clip0)">
<path d="M16.6548 20.2654C17.604 19.3116 17.604 17.7967 16.6548 16.8429C16.2639 16.4501 15.7614 16.2257 15.2309 16.1415C15.873 15.2157 15.7614 13.9253 14.9238 13.0837C14.4771 12.6348 13.9187 12.4104 13.3324 12.3823C13.6954 11.5127 13.5279 10.4466 12.802 9.71722C12.4111 9.32447 11.9365 9.12809 11.434 9.01588L16.3197 4.10648C17.269 3.15266 17.269 1.63776 16.3197 0.683931C15.3705 -0.269894 13.8629 -0.269894 12.9137 0.683931L2.7512 10.8955C2.72328 10.9235 2.69536 10.9516 2.66744 10.9796C-0.431545 14.2058 -0.431546 19.3677 2.7512 22.5658C5.96186 25.792 11.1548 25.792 14.3654 22.5658L14.3933 22.5378L14.4213 22.5097L16.6548 20.2654Z" fill="#4DA1FF"/>
</g>
<defs>
<clipPath id="clip0">
<rect width="18" height="26" fill="white"/>
</clipPath>
</defs>
</svg>
