<svg width="18" height="26" viewBox="0 0 18 26" fill="none" xmlns="http://www.w3.org/2000/svg">
<g clip-path="url(#clip0)">
<path d="M16.6548 20.2658C17.604 19.312 17.604 17.7971 16.6548 16.8432C16.2639 16.4505 15.7614 16.226 15.2309 16.1419C15.873 15.2161 15.7614 13.9256 14.9238 13.084C14.4771 12.6352 13.9187 12.4107 13.3324 12.3827C13.6954 11.513 13.5279 10.447 12.802 9.71759C12.4111 9.32484 11.9365 9.12846 11.434 9.01625L16.3197 4.10685C17.269 3.15302 17.269 1.63812 16.3197 0.684298C15.3705 -0.269528 13.8629 -0.269528 12.9137 0.684298L2.7512 10.8958C2.72328 10.9239 2.69536 10.952 2.66744 10.98C-0.431545 14.2062 -0.431546 19.3681 2.7512 22.5662C5.96186 25.7924 11.1548 25.7924 14.3654 22.5662L14.3933 22.5381L14.4213 22.5101L16.6548 20.2658Z" fill="#C3C3C3"/>
</g>
<defs>
<clipPath id="clip0">
<rect width="18" height="26" fill="white"/>
</clipPath>
</defs>
</svg>
