<svg width="19" height="24" viewBox="0 0 19 24" fill="none" xmlns="http://www.w3.org/2000/svg">
<g clip-path="url(#clip0)">
<path d="M19 7.99991C19 7.76631 18.8662 7.55431 18.6572 7.45591L16.416 6.39991L18.6572 5.34311C18.8662 5.24551 19 5.03351 19 4.79991C19 4.56631 18.8662 4.35431 18.6572 4.25591L9.75096 0.0559117C9.59183 -0.0192883 9.40738 -0.0192883 9.24825 0.0559117L0.342792 4.25591C0.133792 4.35431 0 4.56631 0 4.79991C0 5.03351 0.133792 5.24551 0.342792 5.34391L2.584 6.40071L0.342792 7.45591C0.133792 7.55431 0 7.76631 0 7.99991C0 8.23351 0.133792 8.44471 0.342792 8.54391L2.584 9.60071L0.342792 10.6567C0.133792 10.7543 0 10.9663 0 11.1999C0 11.4335 0.133792 11.6447 0.342792 11.7439L2.584 12.8007L0.342792 13.8567C0.133792 13.9543 0 14.1663 0 14.3999C0 14.6335 0.133792 14.8447 0.342792 14.9439L9.24904 19.1439C9.32821 19.1815 9.4145 19.1999 9.5 19.1999C9.5855 19.1999 9.67179 19.1815 9.75096 19.1439L18.6572 14.9439C18.8662 14.8447 19 14.6335 19 14.3999C19 14.1663 18.8662 13.9543 18.6572 13.8559L16.416 12.7999L18.6572 11.7431C18.8662 11.6447 19 11.4335 19 11.1999C19 10.9663 18.8662 10.7543 18.6572 10.6559L16.416 9.59991L18.6572 8.54311C18.8662 8.44471 19 8.23351 19 7.99991ZM9.5 1.26231L17.0026 4.79991L9.5 8.33751L1.99738 4.79991L9.5 1.26231ZM17.0018 14.3999L9.5 17.9375L1.99817 14.3999L3.98763 13.4623L9.24825 15.9431C9.32821 15.9815 9.4145 15.9999 9.5 15.9999C9.5855 15.9999 9.67179 15.9815 9.75096 15.9439L15.0116 13.4631L17.0018 14.3999ZM17.0018 11.1999L9.5 14.7375L1.99817 11.1999L3.98763 10.2623L9.24825 12.7431C9.32821 12.7815 9.4145 12.7999 9.5 12.7999C9.5855 12.7999 9.67179 12.7815 9.75096 12.7439L15.0116 10.2631L17.0018 11.1999ZM9.5 11.5375L1.99817 7.99991L3.98763 7.06231L9.24825 9.54311C9.32821 9.58151 9.4145 9.59991 9.5 9.59991C9.5855 9.59991 9.67179 9.58151 9.75096 9.54391L15.0116 7.06311L17.0018 7.99991L9.5 11.5375Z" fill="#585858"/>
</g>
<defs>
<clipPath id="clip0">
<rect width="19" height="24" fill="white"/>
</clipPath>
</defs>
</svg>
