<svg width="24" height="24" viewBox="0 0 24 24" xmlns="http://www.w3.org/2000/svg">
  <path stroke="none"
    d="M22.3356 1.66406C20.3212 -0.35026 17.0428 -0.35026 15.0285 1.66406L9.27637 7.41574C7.26204 9.4305 7.26204 12.7085 9.27637 14.7233C9.49109 14.938 9.77269 15.0453 10.0543 15.0453C10.3359 15.0453 10.617 14.938 10.8322 14.7233C11.2621 14.2938 11.2621 13.5973 10.8322 13.1679C9.67545 12.0107 9.67545 10.1283 10.8322 8.97114L16.5839 3.21946C17.7411 2.0627 19.6234 2.0627 20.7802 3.21946C21.3407 3.78002 21.6496 4.52538 21.6496 5.31782C21.6496 6.1107 21.3407 6.85562 20.7802 7.41618L18.4121 9.7847C17.9826 10.2146 17.9826 10.9111 18.4121 11.3401C18.842 11.77 19.538 11.77 19.9679 11.3401L22.336 8.97158C23.3119 7.99566 23.8496 6.6981 23.8496 5.31782C23.8496 3.93754 23.3115 2.63998 22.3356 1.66406Z" />
  <path stroke="none"
    d="M13.1664 9.2769C12.7366 9.70634 12.7366 10.4029 13.1664 10.8323C13.727 11.3929 14.0359 12.1382 14.0359 12.9307C14.0359 13.7235 13.727 14.4685 13.1664 15.029L7.41476 20.7807C6.258 21.9375 4.37568 21.9375 3.21848 20.7807C2.06172 19.6235 2.06172 17.7412 3.21848 16.584L5.587 14.2155C6.01688 13.7856 6.01688 13.0895 5.587 12.6601C5.15756 12.2302 4.4606 12.2302 4.0316 12.6601L1.66308 15.0286C-0.351236 17.0433 -0.351236 20.3213 1.66308 22.3361C2.67024 23.3433 3.99332 23.8471 5.31685 23.8471C6.64037 23.8471 7.96345 23.3433 8.97061 22.3361L14.7223 16.584C15.6982 15.6081 16.2359 14.3105 16.2359 12.9302C16.2359 11.5499 15.6982 10.2524 14.7227 9.27646C14.2924 8.84658 13.5959 8.84658 13.1664 9.2769Z" />
</svg>