<svg width="33" height="32" viewBox="0 0 33 32" fill="none" xmlns="http://www.w3.org/2000/svg">
<path d="M23.8419 7.31445H9.69253C8.28304 7.31445 7.13477 8.52309 7.13477 10.0209V19.1233C7.13477 20.621 8.28304 21.8297 9.69253 21.8297H14.106L16.1414 25.2358C16.2774 25.4614 16.506 25.6002 16.7563 25.6002C17.0066 25.6002 17.2352 25.4614 17.3713 25.2358L19.4066 21.8297H23.8419C25.2514 21.8297 26.3996 20.621 26.3996 19.1233V10.0209C26.3996 8.52309 25.2514 7.31445 23.8419 7.31445Z" fill="#4DA1FF" stroke="#4DA1FF" stroke-width="1.2"/>
<path fill-rule="evenodd" clip-rule="evenodd" d="M11.7217 12.3429C11.7217 12.0904 11.9264 11.8857 12.1788 11.8857H22.273C22.5255 11.8857 22.7302 12.0904 22.7302 12.3429C22.7302 12.5954 22.5255 12.8 22.273 12.8H12.1788C11.9263 12.8 11.7217 12.5954 11.7217 12.3429ZM11.7217 15.0857C11.7217 14.8333 11.9264 14.6286 12.1788 14.6286H22.273C22.5255 14.6286 22.7302 14.8333 22.7302 15.0857C22.7302 15.3382 22.5255 15.5429 22.273 15.5429H12.1788C11.9263 15.5429 11.7217 15.3382 11.7217 15.0857ZM16.3086 17.8286C16.3086 17.5761 16.1039 17.3715 15.8514 17.3715H12.1788C11.9263 17.3715 11.7217 17.5761 11.7217 17.8286C11.7217 18.0811 11.9263 18.2857 12.1788 18.2857H15.8514C16.1039 18.2857 16.3086 18.0811 16.3086 17.8286Z" fill="white"/>
</svg>
