<?xml version="1.0" encoding="UTF-8"?>
<svg width="30px" height="34px" viewBox="0 0 30 34" version="1.1" xmlns="http://www.w3.org/2000/svg">
    <g stroke="none" fill="#000000" fill-rule="nonzero">
        <path d="M28.9736842,3.79534884 L21.7894737,3.79534884 L21.4342105,1.62093023 C21.2763158,0.790697674 20.5657895,0.197674419 19.7368421,0.197674419 L10.3815789,0.197674419 C9.55263158,0.197674419 8.84210526,0.790697674 8.72368421,1.62093023 L8.36842105,3.79534884 L1.02631579,3.79534884 C0.473684211,3.79534884 0.0394736842,4.23023256 0.0394736842,4.78372093 C0.0394736842,5.3372093 0.473684211,5.77209302 1.02631579,5.77209302 L3.15789474,5.77209302 L4.85526316,31.3511628 C4.93421053,32.7348837 6.15789474,33.8023256 7.57894737,33.8023256 L22.4210526,33.8023256 C23.8815789,33.8023256 25.0657895,32.7348837 25.1447368,31.3511628 L26.8421053,5.77209302 L28.9736842,5.77209302 C29.5263158,5.77209302 29.9605263,5.3372093 29.9605263,4.78372093 C29.9605263,4.23023256 29.5263158,3.79534884 28.9736842,3.79534884 Z M10.6578947,2.1744186 L19.5,2.1744186 L19.7763158,3.79534884 L10.3815789,3.79534884 L10.6578947,2.1744186 Z M23.1710526,31.2325581 C23.1315789,31.5488372 22.8157895,31.8255814 22.3815789,31.8255814 L7.57894737,31.8255814 C7.18421053,31.8255814 6.82894737,31.5488372 6.78947368,31.2325581 L5.13157895,5.81162791 L24.8684211,5.81162791 L23.1710526,31.2325581 Z"></path>
        <path d="M10.2236842,23.4837209 C10.5,23.7604651 10.8947368,23.9186047 11.2894737,23.9186047 C11.6842105,23.9186047 12.0789474,23.7604651 12.3552632,23.4837209 L15,20.8348837 L17.6447368,23.4837209 C17.9210526,23.7604651 18.3157895,23.9186047 18.7105263,23.9186047 C19.1052632,23.9186047 19.5,23.7604651 19.7763158,23.4837209 C20.3684211,22.8906977 20.3684211,21.9418605 19.7763158,21.3488372 L17.1315789,18.7 L19.7763158,16.0511628 C20.3684211,15.4581395 20.3684211,14.5093023 19.7763158,13.9162791 C19.1842105,13.3232558 18.2368421,13.3232558 17.6447368,13.9162791 L15,16.5651163 L12.3552632,13.9162791 C11.7631579,13.3232558 10.8157895,13.3232558 10.2236842,13.9162791 C9.63157895,14.5093023 9.63157895,15.4581395 10.2236842,16.0511628 L12.8684211,18.7 L10.2236842,21.3488372 C9.63157895,21.9418605 9.63157895,22.8906977 10.2236842,23.4837209 Z"></path>
    </g>
</svg>