<svg width="21" height="21" viewBox="0 0 21 21" fill="none" xmlns="http://www.w3.org/2000/svg">
<path d="M6.47213 6.6093L9.9652 3.02889V13.6508C9.9652 13.9849 10.2214 14.2475 10.5474 14.2475C10.8734 14.2475 11.1296 13.9849 11.1296 13.6508V3.02889L14.6226 6.6093C14.8555 6.84799 15.2281 6.84799 15.4377 6.6093C15.6706 6.3706 15.6706 5.98869 15.4377 5.77387L10.9665 1.16709C10.8501 1.04774 10.7104 1 10.5474 1V1V1V1V1C10.3844 1 10.2446 1.07161 10.1282 1.16709L5.65708 5.77387C5.4242 6.01256 5.4242 6.39447 5.65708 6.6093C5.86666 6.84799 6.23925 6.84799 6.47213 6.6093Z" fill="#C3C3C3" stroke="black"/>
<path d="M19.5133 11.9083C19.1873 11.9083 18.9311 12.1709 18.9311 12.5051V15.8229C18.9311 17.4699 17.627 18.8066 16.0202 18.8066H5.07525C3.46844 18.8066 2.16436 17.4699 2.16436 15.8229V12.5051C2.16436 12.1709 1.9082 11.9083 1.58218 11.9083C1.25616 11.9083 1 12.1709 1 12.5051V15.8229C1 18.1144 2.83969 20 5.07525 20H16.0435C18.2791 20 20.0955 18.1382 20.0955 15.8229V12.5051C20.0955 12.1709 19.8393 11.9083 19.5133 11.9083Z" fill="#C3C3C3" stroke="black"/>
</svg>
