<svg width="21" height="21" viewBox="0 0 21 21" fill="none" xmlns="http://www.w3.org/2000/svg">
<path d="M6.37691 6.6093L9.86999 3.02889V13.6508C9.86999 13.9849 10.1261 14.2475 10.4522 14.2475C10.7782 14.2475 11.0343 13.9849 11.0343 13.6508V3.02889L14.5274 6.6093C14.7603 6.84799 15.1329 6.84799 15.3425 6.6093C15.5753 6.3706 15.5753 5.98869 15.3425 5.77387L10.8713 1.16709C10.7549 1.04774 10.6152 1 10.4522 1C10.2892 1 10.1494 1.07161 10.033 1.16709L5.56186 5.77387C5.32899 6.01256 5.32899 6.39447 5.56186 6.6093C5.77145 6.84799 6.14404 6.84799 6.37691 6.6093Z" fill="black" stroke="black"/>
<path d="M19.4178 11.9082C19.0918 11.9082 18.8357 12.1708 18.8357 12.5049V15.8228C18.8357 17.4698 17.5316 18.8064 15.9248 18.8064H4.9798C3.37298 18.8064 2.0689 17.4698 2.0689 15.8228V12.5049C2.0689 12.1708 1.81274 11.9082 1.48672 11.9082C1.1607 11.9082 0.904541 12.1708 0.904541 12.5049V15.8228C0.904541 18.1142 2.74423 19.9999 4.9798 19.9999H15.9481C18.1836 19.9999 20 18.1381 20 15.8228V12.5049C20 12.1708 19.7439 11.9082 19.4178 11.9082Z" fill="black" stroke="black"/>
</svg>
