<svg width="20" height="21" viewBox="0 0 20 21" fill="none" xmlns="http://www.w3.org/2000/svg">
<path d="M6.29448 6.6093L9.66463 3.02889V13.6508C9.66463 13.9849 9.91177 14.2475 10.2263 14.2475C10.5409 14.2475 10.788 13.9849 10.788 13.6508V3.02889L14.1582 6.6093C14.3828 6.84799 14.7423 6.84799 14.9445 6.6093C15.1692 6.3706 15.1692 5.98869 14.9445 5.77387L10.6307 1.16709C10.5184 1.04774 10.3836 1 10.2263 1C10.069 1 9.93424 1.07161 9.8219 1.16709L5.50811 5.77387C5.28343 6.01256 5.28343 6.39447 5.50811 6.6093C5.71032 6.84799 6.0698 6.84799 6.29448 6.6093Z" fill="white" stroke="white"/>
<path d="M18.8765 11.9083C18.5619 11.9083 18.3148 12.1709 18.3148 12.5051V15.8229C18.3148 17.4699 17.0566 18.8066 15.5063 18.8066H4.94649C3.39622 18.8066 2.13803 17.4699 2.13803 15.8229V12.5051C2.13803 12.1709 1.89089 11.9083 1.57634 11.9083C1.26179 11.9083 1.01465 12.1709 1.01465 12.5051V15.8229C1.01465 18.1144 2.7896 20 4.94649 20H15.5288C17.6857 20 19.4381 18.1382 19.4381 15.8229V12.5051C19.4381 12.1709 19.191 11.9083 18.8765 11.9083Z" fill="white" stroke="white"/>
</svg>
